<svg version="1.1" xmlns="http://www.w3.org/2000/svg" xmlns:xlink="http://www.w3.org/1999/xlink" x="0px" y="0px"
	 viewBox="0 0 1094 793.8" style="enable-background:new 0 0 1094 793.8;" xml:space="preserve">
 <g id="MIRI-Division-SPI" clip-path="url(#clip-MIRI-Division-SPI)">
    <rect width="1037" height="740" fill="#fff"/>
    <g id="MIRI-Division-SPI-2" data-name="MIRI-Division-SPI" transform="translate(-26.5 -27.3)">
      <g id="Layer_1">
        <g id="g5463">
          <path id="path3753" d="M760.4,138l3.6,4,.2,12.5h-.8v9.9h-.9l-.2,5.2-3.3,4.1v7l-9.1,10V198l-5.5,4.9-.3,2.9-7.8,8.8h-1.7c-4.1,6.1-4.3,10.9-4.3,10.9-6.1,9.3-33.7,30.4-33.7,30.4l-11.2,10.6h-6.1l-2.9,4h-2.1v9.9l-20.2,25.7-.3,7h-1.5c-7.4,8.5-8.3,8.4-8.3,8.4-3.2.2-7.3,6.7-7.3,6.7l-2.7.2.2,4.1-6.1,9h-6.4l-4.7,5.6v6.4l-14.3,17.2H598c-8.8,2.4-11.7,5.9-11.7,5.9h-9.1a48.853,48.853,0,0,1-15,6.7l-2,1.7-13.4-.8v2.3C490.1,399.1,486,400,486,400c-27.7,8.7-27.8,8.7-27.8,8.7-5.3,3.5-46.1,6.5-46.1,6.5-14.1,3.5-18.2,3.5-18.2,3.5a57.073,57.073,0,0,0,16.4,6.5l2.3.6v4.4l-3,.2-.2-1.8c-2.1-2.4-15.5-6.1-15.5-6.1-2-.3-4.4-3.3-4.4-3.3-8.1,8.5-20.2,14.4-20.2,14.4l-4.3-.2-2.7,6.7-6.2.2-1.5,2.1v4.7c-3.3.5-4.7,12.6-4.7,12.6l-.3,8.7c7.8,4,7.3,6.4,7.3,6.4l5,.5,1.5-1.8,2.7.2c4.1,5.2,4.7,8.2,4.7,8.2h-3v-2.1l-2.3.5v-2.7l-9,.2-.2-1.1h-4.1l-.2,3h1.4v6.8c3.2,5.5,2.9,7.4,2.9,7.4-2.4,3.6-10.8,3.6-10.8,3.6-3,3.6-6.7-2.1-6.7-2.1-9.3-10.6-13.1-9.9-13.1-9.9-.5-3.6-5.2-.6-5.2-.6-1.4,8.8-3.5,10.3-3.5,10.3l.2,10.6a34.557,34.557,0,0,1-2.1,4l.3,6.5c2.3,2.7,4.1-2.3,4.1-2.3h2.4l1.5,2.1.3,4h2.1c1.2,2,6.1-2,6.1-2l.3,4.4c-2.2,6.5-10.8.3-10.8.3v-2.1l-1.7-2.3-5.6,7.7a4.827,4.827,0,0,0-3.4,1.5c.6,6,7.5,4.3,7.5,4.3.2-1.5,8.8-1.1,8.8-1.1-4.3,3-4.3,10.5-4.3,10.5-3.6-2.3-7.9,11.5-7.9,11.5-1.5,10-12.2,27.3-12.2,27.3v4.5c1.1.6-2.8,5.3-2.8,5.3V594l2.3.2,3.8,7,4.9,2.3,1.5,6h5.6c2.3,3.4-7.7,3-7.7,3l-.6-5.8c-9.6-7.5-17.5.4-17.5.4-8.3,7.9-7.3,22.2-7.3,22.2,9.2,4.7,10.7,12.4,10.7,12.4,3.8,5.1,11.7,5.1,11.7,5.1,1.9-.4,6.6,4.7,6.6,4.7l4.7-3.6h12l4.1,3.6v4.1l7,2.6v3l-5.3-.2c-7-2.1-6.4-7-6.4-7-.6-4.1-8.1-3-8.1-3-3,.4-7.3,5.8-7.3,5.8a75.2,75.2,0,0,0-9.6-4.9c-15.6-3.8-17.9-11.1-17.9-11.1-1-2.9-5.4-8.3-5.4-8.3-4.9-3.3-15.3-2.8-15.3-2.8l-7.2-5.9H247.2v8.8l-3.4,5.6-.2-8.1-6.1-5h-4.8l-5.3-5-15.3-.2c-1.2-6.4-4.4-6.4-4.4-6.4-4.7-3.6-2.3-6.1-2.3-6.1l-.1-6.1,5.3-2.9-3.3-4.7h-2.7v4h-6.3l-4.8,7h-1.7c-2-2.1-9.6-4-9.6-4l-.6-8.6-1.3.2.2-6.5H178l-2.1,3.2-.4,13-14.7-.2-38.4.5v3.4h-2.6v-2.8l-3.8-.1-.1,2.1H110v-4.5a9.673,9.673,0,0,1-6.7-3.3,6.17,6.17,0,0,0,2.2-2.8c-3.6-4.8-5-5.4-5-5.4l-5-.4a20.67,20.67,0,0,1-9.4-5.4l-4.6-.2c-6.8-2-8.4-9-8.4-9a27.061,27.061,0,0,0-3.6-2.4V547c-1.6-.2,0-3.8,0-3.8l-.2-2H65.9v1l-2,2.4-.2,5.8-.6-.2-.4,6c0,2.8-11,4.6-11,4.6v3.6l-2.2,2.8.2,12.1.2,2.6,3.8.2c.4,6.6,3.6,7.4,3.6,7.4l13.9-.2c1.8,2.8-1.8,8.8-1.8,8.8v6h1.4v4.8L67,614.3l-.2,2.8,4.2,3.8h3.6c-.2,5.6,13.9,11.4,13.9,11.4l5.4,9.8.4-2.6,2.6.4v9h1.6v1l18.7.2c1.2,15.1,8,18.7,8,18.7,10.6,3.8,6.8,10,6.8,10v4.8l9.6.2-.2,2h2.8V684c14.9,4.4,13.7,6.4,13.7,6.4v5.4c5.8,1,7.8,10.2,7.8,10.2l3,.8c.4,7.4,5,9.4,5,9.4h14c4,5,4.6,5.4,4.6,5.4v2.6l4.2,1.2V730h2.4v2.8h3.8v2.6c9.2.2,12.3,2.4,12.3,2.4h9l6-6.6c2.4-1.4,3.6,3.8,3.6,3.8l7.8-.2v-1l10.8-8.6c3.4,5.2,5.4,3.4,5.4,3.4v-4.2l4.2-.4,12.3-13.7a204.791,204.791,0,0,0,48.4-7.6c1.6-1.2,24.9,8.6,24.9,8.6v1.4l8.2.2c5.8-3.4,7.2-3.4,7.2-3.4,5,.2,5.8,10.8,5.8,10.8l4.2,3.2h1.8v-3c6.6-9.4,19.1-14.3,19.1-14.3,5.8,3.6,6.8,3.4,6.8,3.4,1.8,4.4,5.8.8,5.8.8l6.8.4c6,6.6,11.6.8,11.6.8l.2-4,11.6-12.7,34.1-4.4.4-9.8,2-1.8,1-13.7,5.2-4.2c8.2-8.8-.8-14.1-.8-14.1l3.4-5,8.6-.4,7-8,17.9-1a30.671,30.671,0,0,1,14.7-10c10.4-.6,14.9,1.8,14.9,1.8l34.7,4,8-7.6c10.8.4,16.1,1.6,16.1,1.6l5.4,3,6.6-.2v2.4c-4.2,6.4-11.2,11.8-11.2,11.8-5.6,5.8.4,8.6.4,8.6,3.6,2.2,19.3-3.4,19.3-3.4l6.4,7.8,26.1.2c5.6,3,8,10.2,8,10.2h4.4c3.8,5.8,7.4,6.6,7.4,6.6h4.2c8.4-5.2,10.2-5.2,10.2-5.2h6.8l9,10.8,2.6,4.6h4.6c7.2-6,7.4-7.2,7.4-7.2,4.8-3.2,14.9-4,14.9-4a33.988,33.988,0,0,0,6.8-7.4c-4.6-7.6,5.4-11.2,5.4-11.2l7.4-.4,9.4-8h21.3v-.8l6.2-.2c8.4,7.4,10.4,7.2,10.4,7.2l6-6.2,12.3-.2,4.2-3.4h3.6l5.6-6.4,5.6,4.4,7.8.4,6.6,7.2h6.4l9.6-11.4c-2-4.8-2.8-5.2-2.8-5.2l-.2-5,13.7-14.5.4-13.5,2.4-3.8v-5.6c-2.4-1,2.2-7,2.2-7v-4.8l13.5.2v-1h4.6l3.6-4,.2-8.8H906v-6l1.6-.8V543H902v1.6l-4.6-.4.4-12c-9.8-7.6-.4-19.9-.4-19.9l7-.4,2.4-3.2,8.6-.4,2.6-1.6,4.6-.6c6-3.4-1-7-1-7l-.2-4.6c2-2.2,5.2.6,5.2.6l4.8.2v-2.6h1.4l3.8-5h5.2a104.725,104.725,0,0,1,9.8-12.5,88.549,88.549,0,0,0,13.9-1.8l3.4-2.4v-5.2l-3.8-1.2-.4-3.4-5-3.6v-4l-5.2-2.6H952l-2.6,2.8c-2,2.8-4.2-3.2-4.2-3.2h-3c.2-5,6.4-12.5,6.4-12.5V436l2.2-2-.2-7.2a31.117,31.117,0,0,1-3-6.8l8-8.6v-4l19.5-20.1h3.4v7.8l10.8.2,8-6.6h8l6-5.4.2-9.6,6.2-4.4c7.8-3.4-2.6-11.4-2.6-11.4l-.6-15.1h-1.2l-.2-8.4h1.2v-4.6l9-9.6,3,5.6c2.4,2.8,5.4-2.6,5.4-2.6V316l-2.6-1.8v-9a113.7,113.7,0,0,0-8-11.4l.2-9.2,2.4-3.2.6-14.5h.6v-4.6l1.6-1.6v-10c-8.2-1.6-8.8-8.2-8.8-8.2,2.6-2,8.8-2.2,8.8-2.2,7.8-4.2,7.6-11,7.6-11a29.579,29.579,0,0,1,3.6-13.5v-5c-5.4-.6-6.6-4.6-6.6-4.6l-.6-17.1c5.6-3.2,4.4-5.8,4.4-5.8l-12-12.7-.8-27.3c-7-6.2-5.6-12.3-5.6-12.3l4.4-3.8c4.6-5.6,5.6-14.7,5.6-14.7.2-1.8,4.8-6.6,4.8-6.6V96.3l-2.4-4.6V82.5c-1.2-2.8-4-9.2-4-9.2l-6-.6c-7.8,7.4-26.1,2.2-26.1,2.2a106.406,106.406,0,0,0-8.8,11,8.757,8.757,0,0,1-6.4-.8c-2-2-11-3.2-11-3.2a24.009,24.009,0,0,0-2.2-6h-6.2c.2,5.4-8.6,8.8-8.6,8.8l3.8,7L964,103.8h1.8l.2,10.4,1.2,1.4.4,11.8c4.2-.2,4.2,2,4.2,2l-2.4,5-.4,11.8h1.6v11.4c3.8,9.2,6.4,9.2,6.4,9.2,4,6.4,6.4,6.4,6.4,6.4l.2,7a25.618,25.618,0,0,1-8-1.8v-1.2l-8.2-.2-.2-4.8c-8.6-3.6-21.9-2.8-21.9-2.8l-.4-10.8-2.6-1.4-2-18.3-5.4-7-1-10.8-.4-6.4-1.2-.2-.2-4.8h2.2v-10l2.6-5.4-1.8-2.2-.2-2.4-5.6-4.8h-1.6L923.3,99l-13.7.2c-9,5-9,12-9,12h-6.8c-4.8,3.6,0,12.5,0,12.5v9.6l3.8,2.6-.4,21.1c.4,7,10.2,7.8,10.2,7.8-2.8,14.5-10.6,20.5-10.6,20.5l.6,6.2,1.8.2,2.2-3v4.8c-5.6,6.8-7.6,11-7.6,11l-.2,3.4-3.2,3.6v4.4l-4.8,4.8-2.6-.4-5.4,6c-2.6,3-11.6,3-11.6,3l-1.8-2v-5.6l-6-.4v-7a20.956,20.956,0,0,0-12-4.8l-4-7.4v-2.6h-2v-3.2l-2.4-2.6v-5H825.1v2h-8v-7.4l2-.2-1-7.8-2.2-.4c.4-16.1-16.7-28.9-16.7-28.9l-3.6.2L795,142l-4.8.2-.2-3.4L778.2,136l-14.7.2-.4,1Z" fill="none" stroke="#000" stroke-linecap="round" stroke-linejoin="round" stroke-width="1.5"/>
          <path id="path3753-1" d="M212,619.5c-1.2-6.4-4.4-6.4-4.4-6.4-4.7-3.6-2.3-6.1-2.3-6.1l-.1-6.1,5.3-2.9-3.3-4.7h-2.7v4h-6.3l-4.8,7h-1.7c-2-2.1-9.6-4-9.6-4l-.6-8.6-1.3.2.2-6.5H178l-2.1,3.2-.4,13-14.7-.2-38.4.5v3.4h-2.6v-2.8l-3.8-.1-.1,2.1H110V600a9.673,9.673,0,0,1-6.7-3.3,6.17,6.17,0,0,0,2.2-2.8c-3.6-4.8-5-5.4-5-5.4l-5-.4a20.67,20.67,0,0,1-9.4-5.4l-4.6-.2c-6.8-2-8.4-9-8.4-9a27.061,27.061,0,0,0-3.6-2.4V547c-1.6-.2,0-3.8,0-3.8l-.2-2H65.9v1l-2,2.4-.2,5.8-.6-.2-.4,6c0,2.8-11,4.6-11,4.6v3.6l-2.2,2.8.2,12.1.2,2.6,3.8.2c.4,6.6,3.6,7.4,3.6,7.4l13.9-.2c1.8,2.8-1.8,8.8-1.8,8.8v6h1.4v4.8L67,614.3l-.2,2.8,4.2,3.8h3.6c-.2,5.6,13.9,11.4,13.9,11.4l5.4,9.8.4-2.6,2.6.4v9h1.6v1l18.7.2c1.2,15.1,8,18.7,8,18.7,10.6,3.8,6.8,10,6.8,10v4.8l9.6.2-.2,2h2.8V684c14.9,4.4,13.7,6.4,13.7,6.4v5.4c5.8,1,7.8,10.2,7.8,10.2l3,.8,3.6-.7c5.8-8.1,11.8-9.4,11.8-9.4l4.9-3.4v-4.5c4.3-7.9,4.1-12.4,4.1-12.4l2.8-1.7v-6.4l2.4.4v-5.1a33.682,33.682,0,0,1-8.1-12.2l-6.4-.2v-1.1l-2.4-2.8-3.6-.2-.2-2.6a25.441,25.441,0,0,0,10.1-10.3l10.3.2v-1.3l7.3-.4V631h2.6l-.2-2.6,3.2-1.9v-3.9Z" fill="#bfbfbf" stroke="#000" stroke-linecap="round" stroke-linejoin="round" stroke-width="1.5"/>
          <path id="path3753-2" d="M168.9,706.3c.4,7.4,5,9.4,5,9.4h14c4,5,4.6,5.4,4.6,5.4v2.6l4.2,1.2v4.6h2.4v2.8h3.8v2.6c9.2.2,12.3,2.4,12.3,2.4h9l6-6.6c2.4-1.4,3.6,3.8,3.6,3.8l7.8-.2v-1l10.8-8.6c3.4,5.2,5.4,3.4,5.4,3.4v-4.2l4.2-.4,12.3-13.7s3.5-.1,11.4-.8m-116.8-2.7,3.6-.7c5.8-8.1,11.8-9.4,11.8-9.4l4.9-3.4v-4.5c4.3-7.9,4.1-12.4,4.1-12.4l2.8-1.7v-6.4l2.4.4v-5.1a33.682,33.682,0,0,1-8.1-12.2l-6.4-.2v-1.1l-2.4-2.8-3.6-.2-.2-2.6a25.441,25.441,0,0,0,10.1-10.3l10.3.2v-1.3l7.3-.4V631h2.6l-.2-2.6,3.2-1.9v-3.9l1.2-3.1,15.3.2,5.3,5h4.8l6.1,5,.2,8.1,3.4-5.6v-8.8h11.9l7.2,5.9s10.4-.5,15.3,2.8c0,0,4.4,5.4,5.4,8.3,0,0,2.3,7.3,17.9,11.1l.8,14.2c-4.4,2.2-6.8,12.8-6.8,12.8-8.1,3-18.5,1.9-18.5,1.9l-3.1,4.1,3.3,5.3-.4,4.7h1.8v4l3.2,3.7.1,6.7" fill="#bfbfbf" stroke="#000" stroke-linecap="round" stroke-linejoin="round" stroke-width="1.5"/>
          <path id="path3753-16" d="M314.8,552.4c-1.5,10-12.2,27.3-12.2,27.3v4.5c1.1.6-2.8,5.3-2.8,5.3v4.1l2.3.2,3.8,7,4.9,2.3,1.5,6h5.6c2.3,3.4-7.7,3-7.7,3l-.6-5.8c-9.6-7.5-17.5.4-17.5.4-8.3,7.9-7.3,22.2-7.3,22.2,9.2,4.7,10.7,12.4,10.7,12.4,3.8,5.1,11.7,5.1,11.7,5.1,1.9-.4,6.6,4.7,6.6,4.7l4.7-3.6h12l4.1,3.6v4.1l7,2.6v3l-5.3-.2c-7-2.1-6.4-7-6.4-7-.6-4.1-8.1-3-8.1-3-3,.4-7.3,5.8-7.3,5.8a75.2,75.2,0,0,0-9.6-4.9l.8,14.2c-4.4,2.2-6.8,12.8-6.8,12.8-8.1,3-18.5,1.9-18.5,1.9l-3.1,4.1,3.3,5.3-.4,4.7H282v4l3.2,3.7.1,6.9c15.8-.7,37-6.9,37-6.9,1.6-1.2,24.9,8.6,24.9,8.6v1.4l8.2.2c5.8-3.4,7.2-3.4,7.2-3.4,5,.2,5.8,10.8,5.8,10.8l4.2,3.2h1.8v-3c6.6-9.4,19.1-14.3,19.1-14.3,5.8,3.6,6.8,3.4,6.8,3.4,1.8,4.4,5.8.8,5.8.8l6.8.4c6,6.6,11.6.8,11.6.8l.2-4,11.6-12.7,34.1-4.4.4-9.8,2-1.8,1-13.7,5.2-4.2c8.2-8.8-.8-14.1-.8-14.1l3.4-5-27.8-.9-6.4-8.5v-7.9a79.664,79.664,0,0,1-19.5-2.1H412.1v-4.9c-6.1,1.5-7.9-8.5-7.9-8.5-2.1-2.1-5.5,2.7-5.5,2.7h-8.2l-1.8-2.4-.6-12.2-.9.3-1.2-4.3-2.7.3-4.6-5.5c-3,.3-10.4-4.9-10.4-4.9v-6.1a32.45,32.45,0,0,0-2.7-5.8l-7-.3-.3-1.5-.3-6.1h-3.7l-.3-.6-.3-4.9-10.1-1.2-2.1-2.7-9.8-.9V548a15.556,15.556,0,0,0-5.1,2.2c-1.9-.9-7.9-6-7.9-6a25.368,25.368,0,0,0-3.9,8.2" fill="rgba(191,191,191,0.98)" stroke="#000" stroke-linecap="round" stroke-linejoin="round" stroke-width="1.5"/>
          <path id="path3753-5" d="M560.1,384.7l-13.4-.8v2.3c-56.7,12.6-60.8,13.5-60.8,13.5-27.7,8.7-27.8,8.7-27.8,8.7-5.3,3.5-46.1,6.5-46.1,6.5-14.1,3.5-18.2,3.5-18.2,3.5a57.073,57.073,0,0,0,16.4,6.5l2.3.6v4.4l-3,.2-.2-1.8c-2.1-2.4-15.5-6.1-15.5-6.1-2-.3-4.4-3.3-4.4-3.3-8.1,8.5-20.2,14.4-20.2,14.4l-4.3-.2-2.7,6.7-6.2.2-1.5,2.1v4.7c-3.3.5-4.7,12.6-4.7,12.6l-.3,8.7c7.8,4,7.3,6.4,7.3,6.4l5,.5,1.5-1.8,2.7.2c4.1,5.2,4.7,8.2,4.7,8.2h-3v-2.1l-2.3.5v-2.7l-9,.2-.2-1.1h-4.1l-.2,3h1.4v6.8c3.2,5.5,2.9,7.4,2.9,7.4-2.4,3.6-10.8,3.6-10.8,3.6-3,3.6-6.7-2.1-6.7-2.1-9.3-10.6-13.1-9.9-13.1-9.9-.5-3.6-5.2-.6-5.2-.6-1.4,8.8-3.5,10.3-3.5,10.3l.2,10.6a34.557,34.557,0,0,1-2.1,4l.3,6.5c2.3,2.7,4.1-2.3,4.1-2.3h2.4l1.5,2.1.3,4h2.1c1.2,2,6.1-2,6.1-2l.3,4.4c-2.2,6.5-10.8.3-10.8.3v-2.1l-1.7-2.3-5.6,7.7a4.827,4.827,0,0,0-3.4,1.5c.6,6,7.5,4.3,7.5,4.3.2-1.5,8.8-1.1,8.8-1.1-4.3,3-4.3,10.5-4.3,10.5-2-.2-4.4,3.5-4.4,3.5s6,4.8,8,5.7a20.9,20.9,0,0,1,5.1-2.2v4.3l9.8.9,2.1,2.7,10.1,1.2.3,4.9.3.6h3.7l.3,6.1.3,1.5,7,.3a32.453,32.453,0,0,1,2.7,5.8v6.1s7.3,5.2,10.4,4.9l4.6,5.5,2.7-.3,1.2,4.3.9-.3.6,12.2,1.8,2.4h8.2s3.4-4.9,5.5-2.7c0,0,1.8,10.1,7.9,8.5v4.9h15.8a79.661,79.661,0,0,0,19.5,2.1v7.9l6.4,8.5,27.8.9,8.6-.4,7-8,17.9-1a30.671,30.671,0,0,1,14.7-10c10.4-.6,14.9,1.8,14.9,1.8l34.7,4,8-7.6c10.8.4,16.1,1.6,16.1,1.6l5.4,3,6.6-.2v2.4c-4.2,6.4-11.2,11.8-11.2,11.8-5.6,5.8.4,8.6.4,8.6,3.6,2.2,19.3-3.4,19.3-3.4l6.4,7.8,26.1.2c5.6,3,8,10.2,8,10.2h4.4c3.8,5.8,7.4,6.6,7.4,6.6h4.2c8.4-5.2,10.2-5.2,10.2-5.2h6.8l9,10.8,2.6,4.6h4.6c7.2-6,7.4-7.2,7.4-7.2,4.8-3.2,14.9-4,14.9-4a33.988,33.988,0,0,0,6.8-7.4c-4.6-7.6,5.4-11.2,5.4-11.2l7.4-.4,9.4-8h21.3v-.8l6.2-.2c8.4,7.4,10.4,7.2,10.4,7.2l6-6.2,12.3-.2L825,637h3.6l5.6-6.4,5.6,4.4,7.8.4,6.6,7.2h6.4l9.6-11.4c-2-4.8-2.8-5.2-2.8-5.2l-.2-5,13.7-14.5.4-13.5,2.4-3.8v-5.6c-2.4-1,2.2-7,2.2-7v-4.8l13.5.2v-1H904l3.6-4,.2-8.8H906v-6l1.6-.8V543H902v1.6l-4.6-.4.4-12c-9.8-7.6-.4-19.9-.4-19.9l7-.4,2.4-3.2,8.6-.4,2.6-1.6,4.6-.6c6-3.4-1-7-1-7l-.2-4.6c2-2.2,5.2.6,5.2.6l4.8.2v-2.6h1.4l3.8-5h5.2a104.725,104.725,0,0,1,9.8-12.5,88.549,88.549,0,0,0,13.9-1.8l3.4-2.4v-5.2l-3.8-1.2-.4-3.4-5-3.6v-4l-5.2-2.6H952l-2.6,2.8c-2,2.8-4.2-3.2-4.2-3.2h-3c.2-5,6.4-12.5,6.4-12.5V436l2.2-2-.2-7.2a31.117,31.117,0,0,1-3-6.8l-5.2-.5a26.625,26.625,0,0,0-5,6.2v4.5c-18.4,18.2-25.7,9.3-25.7,9.3l-.3-1h-4.7V438l-19.3-.6v-2.9c-7.6-.6-9.6-6.3-9.6-6.3l-.3-5.7-.8.2-.2-4.7-2.1-1.6-5.2-.3-2-6.4-11.5.7c0,5.3-6-2.7-6-2.7v-7.1l-1.8-2.7-8.9-1.1-3.9-3.2c-2.5-5-5.5-12.8-5.5-12.8h-4.4l-9.2-8.5-.2-7.8,2.3-1.1h4.4c0-4.1-5-9.2-5-9.2-3.2-2.5-11.2-6.4-11.2-6.4a17.836,17.836,0,0,0-.5-5.7c-5,0-7.1-5.3-7.1-5.3-1.6-3.4-10.1,4.6-10.1,4.6H777.4V343l-4.6-.5v-1.4l3.4-3.4v-6l-6.2,3.7-1.4,6.4-2.6,1.9-9.3,9v2.1l-2.7.9-.3,9c-3,0-4.8,13-4.8,13l-20.5,24.7-.3,1.5L714,421.7v5.7h-6.9l-3.9,3.6,3.2,1.6,6.9-.1,4.2,3.2v3.1l-7.1,4-.2,5.1,1.3-.3v2.6h-1.3l-1.8,4.3-4.1-3.9H700l-7.8,11h-4.9l-.8,1.3-.2,3-4.3,2.8h-1.6l.1-8.6h-3.3l-3.9.8-3.1-.1v3H652.1c-4,2.2-10.3,6.1-10.3,6.1-8.1,1.3-15.2,9.4-15.2,9.4l-8.6.3-1.2,2.2h-4.2l-3.3,2.9v8.6l5.1,6.6v2l-5.1-.3-.1-1.3h-2.8l-.1,5.2-2.2,3.2-10.9-.3-2.9,3.5-.3,7.8-2.7,5.9h-6.9l-1,3.1-15.6-.1c-3.7-3.6-14.3-5.2-14.3-5.2-1.9-2-1-2.8-1-2.8l6.9-.1,3.3-2.8v-3.1l8.6-.1v1.3l4.2-.1,1.9-4v-4l-9.5-.1-1.5-2.6-7-.5-3.7-4.9-.3-6,10-13.4v-9.6l4-2.7v-3.7l-2.8-2.8-.3-10,9.2-.1v.9l7,.5v-1h4.3l-.1-4.3-4.2-5.8-10.2-.3a52.026,52.026,0,0,1-5.6-4.7c2.3-2.3,7.2-4.6,7.2-4.6l3.1-3.2-2.7-4.1h-3.8l-7-7.8.3-5,3.8-6.6V388.8Z" fill="#bfbfbf" stroke="#000" stroke-linecap="round" stroke-linejoin="round" stroke-width="1.5"/>
          <path id="path3988" d="M333,483.3l7.6,5.8v6.7a6.492,6.492,0,0,0,5-.6v-2.1h2.5V495l3.9-.6.4-4.5-2.1-1.8.2-7.8-2.7-4.7V438.2c-2.5-6.4-2.5-6.8-2.5-6.8H342c-3.1-6-9.3,1.9-9.3,1.9l-1.6-.2v10.5l1.2.4v9.1h1.8Z" fill="#bfbfbf" stroke="#000" stroke-linecap="round" stroke-linejoin="round" stroke-width="1.5"/>
          <path id="path3990" d="M349,438.9l2.8-3.1V432l-3.3.3-.3,3.6Z" fill="#ffe4b5" stroke="#000" stroke-linecap="round" stroke-linejoin="round" stroke-width="1.5"/>
          <path id="path3753-6" d="M674.3,280.2l-20.2,25.7-.3,7h-1.5c-7.4,8.5-8.3,8.4-8.3,8.4-3.2.2-7.3,6.7-7.3,6.7l-2.7.2.2,4.1-6.1,9h-6.4l-4.7,5.6v6.4l-14.3,17.2H598c-8.8,2.4-11.7,5.9-11.7,5.9h-9.1a48.853,48.853,0,0,1-15,6.7l-2,1.7,3.3,3.9v16.5l-3.8,6.6-.3,5,7,7.8h3.8l2.7,4.1-3.1,3.2s-4.9,2.3-7.2,4.6a52.031,52.031,0,0,0,5.6,4.7l10.2.3,4.2,5.8.1,4.3h-4.3v1l-7-.5v-.9l-9.2.1.3,10,2.8,2.8v3.7l-4,2.7v9.6l-10,13.4.3,6,3.7,4.9,7,.5,1.5,2.6,9.5.1v4l-1.9,4-4.2.1v-1.3l-8.6.1v3.1l-3.3,2.8-6.9.1s-.9.8,1,2.8c0,0,10.6,1.7,14.3,5.2l15.6.1,1-3.1h6.9l2.7-5.9.3-7.8,2.9-3.5,10.9.3,2.2-3.2.1-5.2h2.8l.1,1.3,5.1.3v-2l-5.1-6.6v-8.6l3.3-2.9h4.2l1.2-2.2,8.6-.3s7.1-8.1,15.2-9.4c0,0,6.3-3.9,10.3-6.1h18.1v-3l3.1.1,3.9-.8h3.3l-.1,8.6h1.6l4.3-2.8.2-3,.8-1.3h4.9l7.8-11h4.3l4.1,3.9,1.8-4.3h1.3v-2.6l-1.3.3.2-5.1,7.1-4v-3.1l-4.2-3.2-6.9.1-3.2-1.6,3.9-3.6h6.9v-5.7l14.2-18.1.3-1.5,20.5-24.7s1.8-13,4.8-13l.3-9,2.7-.9v-2.1l9.3-9,2.6-1.9L770,335l-1.8.3v-6.2l3.2-5-2.9,1.3-3-.2V322l-1.2.5v-2.2l3.2-2.2v-5.7l-6.4-8.1H753a77.653,77.653,0,0,1-5.7,10.7l-5.9,17.3-9.7,7.9v1.3h-4l-6.4-7.2-10.1-.2v-6.5c-1.5-3.9-7.2-7.2-7.2-7.2l-12.2-.2c-2.9-2.5-3.7-8.1-3.7-8.1l.3-10.9c-4.5-5.8-14.1-21-14.1-21Z" fill="#bfbfbf" stroke="#000" stroke-linecap="round" stroke-linejoin="round" stroke-width="1.5"/>
          <g id="Group_1" data-name="Group 1">
            <path id="Path_1" data-name="Path 1" d="M1037.5,211.4c-5.4-.6-6.6-4.6-6.6-4.6l-.6-17.1c5.6-3.2,4.4-5.8,4.4-5.8l-12-12.7-.8-27.3c-7-6.2-5.6-12.3-5.6-12.3l4.4-3.8c4.6-5.6,5.6-14.7,5.6-14.7.2-1.8,4.8-6.6,4.8-6.6V96.3l-2.4-4.6V82.5c-1.2-2.8-4-9.2-4-9.2l-6-.6c-7.8,7.4-26.1,2.2-26.1,2.2a106.406,106.406,0,0,0-8.8,11,8.757,8.757,0,0,1-6.4-.8c-2-2-11-3.2-11-3.2a24.009,24.009,0,0,0-2.2-6H958c.2,5.4-8.6,8.8-8.6,8.8l3.8,7,10.6,12.1h1.8l.2,10.4,1.2,1.4.4,11.8c4.2-.2,4.2,2,4.2,2l-2.4,5-.4,11.8h1.6v11.4c3.8,9.2,6.4,9.2,6.4,9.2,4,6.4,6.4,6.4,6.4,6.4l.2,7a25.618,25.618,0,0,1-8-1.8v-1.2l-8.2-.2-.2-4.8c-8.6-3.6-21.9-2.8-21.9-2.8l-.4-10.8-2.6-1.4-2-18.3-5.4-7-1-10.8-.4-6.4-1.2-.2-.2-4.8h2.2v-10l2.6-5.4-1.8-2.2-.2-2.4-5.6-4.8h-1.6L923.3,99l-13.7.2c-9,5-9,12-9,12h-6.8c-4.8,3.6,0,12.5,0,12.5v9.6l3.8,2.6-.4,21.1c.4,7,10.2,7.8,10.2,7.8-2.8,14.5-10.6,20.5-10.6,20.5l.6,6.2,1.8.2,2.2-3v4.8c-5.6,6.8-7.6,11-7.6,11l-.2,3.4s8.7-1.3,16.5.5c0,0,7.2,1.1,9.2,2.3a25.862,25.862,0,0,0,10.4,1.1s4.9.6,6.2,1.2c1.4.6,3.3,1.6,3.3,1.6l4,2.1s7.2,4.8,11.4,15.8a14.488,14.488,0,0,0,4,4.6l20.1,15.2s8.8,6.9,15.1,6.7c0,0,10.4,1.1,15-5.4s3.4-8.6,8.6-10.4c2.6-2,8.8-2.2,8.8-2.2,7.8-4.2,7.6-11,7.6-11a29.579,29.579,0,0,1,3.6-13.5v-5.1Z" fill="#bfbfbf" stroke="#000" stroke-linecap="round" stroke-linejoin="round" stroke-width="1.5"/>
            <path id="Path_2" data-name="Path 2" d="M1008.9,253.5c-4.6,6.5-15,5.4-15,5.4-6.3.2-15.1-6.7-15.1-6.7L958.7,237a13.431,13.431,0,0,1-4-4.6c-4.2-11-11.4-15.8-11.4-15.8l-4-2.1a35.184,35.184,0,0,0-3.3-1.6,39.929,39.929,0,0,0-6.2-1.2,25.862,25.862,0,0,1-10.4-1.1c-1.9-1.3-9.2-2.3-9.2-2.3-7.7-1.8-16.5-.5-16.5-.5l-3.2,3.6v4.4l-4.8,4.8-2.6-.4-5.4,6c-2.6,3-11.6,3-11.6,3l-1.8-2v-5.6l-6-.4v-7a20.956,20.956,0,0,0-12-4.8l-4-7.4v-2.6h-2v-3.2l-2.4-2.6v-5H825.2v2h-8v-7.4l2-.2-1-7.8-2.2-.4c.4-16.1-16.7-28.9-16.7-28.9l-3.6.2-.6-4.2-4.8.2-.2-3.4-11.8-2.8-14.7.2-.4,1-3,.7,3.6,4,.2,12.5h-.8v9.9h-.9l-.2,5.2-3.3,4.1v7l-9.1,10v7.3l-5.5,4.9-.3,2.9-7.8,8.8h-1.7c-4.1,6.1-4.3,10.9-4.3,10.9-6.1,9.3-33.7,30.4-33.7,30.4l-11.2,10.6h-6.1l-2.9,4h-2.1v9.9h0s9.5,15.2,14.1,21.2l-.3,10.9s.8,5.5,3.7,8.1l12.2.2s5.7,3.4,7.2,7.2v6.5l10.1.2,6.4,7.2h4v-1.3l9.7-7.9,5.9-17.3a77.653,77.653,0,0,0,5.7-10.7H761l6.4,8.1v5.7l-3.2,2.2v2.2l1.2-.5v3.2l3,.2,2.9-1.3-3.2,5v6.2l1.8-.3,6.2-3.7v6l-3.4,3.4v1.4l4.6.5V341h11.2s8.5-8,10.1-4.6c0,0,2.1,5.3,7.1,5.3a17.836,17.836,0,0,1,.5,5.7s8,3.9,11.2,6.4c0,0,5,5,5,9.2H818l-2.3,1.1.2,7.8,9.2,8.5h4.4s3,7.8,5.5,12.8l3.9,3.2,8.9,1.1,1.8,2.7v7.1s6,8,6,2.7l11.5-.7,2,6.4,5.2.3,2.1,1.6.2,4.7.8-.2.3,5.7s1.9,5.7,9.6,6.3V437l19.3.6v.6h4.7l.3,1s7.3,8.9,25.7-9.3v-4.5a29.136,29.136,0,0,1,5-6.2l5.2.5,8-8.6v-4L975,387h3.4v7.8l10.8.2,8-6.6h8l6-5.4.2-9.6,6.2-4.4c7.8-3.4-2.6-11.4-2.6-11.4l-.6-15.1h-1.2l-.2-8.4h1.2v-4.6l9-9.6,3,5.6c2.4,2.8,5.4-2.6,5.4-2.6v-7.2l-2.6-1.8v-9a113.7,113.7,0,0,0-8-11.4l.2-9.2,2.4-3.2.6-14.5h.6V262l1.6-1.6v-10c-8.2-1.6-8.8-8.2-8.8-8.2C1012.3,244.9,1013.5,247,1008.9,253.5Z" fill="red" stroke="#000" stroke-linecap="round" stroke-linejoin="round" stroke-width="1.5"/>
          </g>
        </g>
      </g>
      <g id="Layer_3">
        <line id="Line_1" data-name="Line 1" x1="65.1" y1="104.9" transform="translate(712.7 90.6)" fill="none" stroke="#9dc3e6" stroke-width="3"/>
        <line id="Line_2" data-name="Line 2" x1="152" transform="translate(573.5 278.7)" fill="none" stroke="#9dc3e6" stroke-width="3"/>
        <line id="Line_3" data-name="Line 3" x1="70" transform="translate(644 91.3)" fill="none" stroke="#9dc3e6" stroke-width="3"/>
        <rect id="Rectangle_1" data-name="Rectangle 1" width="206.9" height="80.8" transform="translate(366.6 238.3)" fill="none" stroke="#9dc3e6" stroke-width="3"/>
        <g id="Group_2" data-name="Group 2">
          <path id="Path_3" data-name="Path 3" d="M519,84.4a.908.908,0,0,1-.3.7,1.08,1.08,0,0,1-.7.3,1.389,1.389,0,0,1-1-.5l-2.9-4.6a2.892,2.892,0,0,0-1.1-1.1,3.34,3.34,0,0,0-1.5-.3H509v5.4a.984.984,0,0,1-.3.8,1.1,1.1,0,0,1-1.9-.8V70.8a1.032,1.032,0,0,1,1.1-1.1h5.5a6.244,6.244,0,0,1,3.9,1.1,4.223,4.223,0,0,1,1.4,3.3,4.359,4.359,0,0,1-1,3,4.7,4.7,0,0,1-2.9,1.4,2.075,2.075,0,0,1,1,.6,5.307,5.307,0,0,1,.9,1.1l2.3,3.6C518.9,84,519,84.2,519,84.4Zm-5.9-7.5a3.56,3.56,0,0,0,2.5-.7,2.564,2.564,0,0,0,.8-2.1,2.865,2.865,0,0,0-.8-2.1,4.326,4.326,0,0,0-2.6-.6h-4.1v5.5h4.2Z"/>
          <path id="Path_4" data-name="Path 4" d="M536.5,69.9a1.135,1.135,0,0,1,.3.8V84.2a1.135,1.135,0,0,1-.3.8.984.984,0,0,1-.8.3.779.779,0,0,1-.7-.3,1.909,1.909,0,0,1-.3-.8V74l-4.3,8.2c-.3.5-.6.8-1.1.8a1.4,1.4,0,0,1-1.1-.8l-4.3-8.1V84.2a1.135,1.135,0,0,1-.3.8.908.908,0,0,1-.7.3.779.779,0,0,1-.7-.3,1.135,1.135,0,0,1-.3-.8V70.7a1.032,1.032,0,0,1,1.1-1.1c.5,0,.8.3,1.1.8l5.3,10.1,5.2-10.1c.3-.5.6-.8,1.1-.8A1.136,1.136,0,0,1,536.5,69.9Z"/>
          <path id="Path_5" data-name="Path 5" d="M541.9,83.7a6.237,6.237,0,0,1-1.6-4.7V70.7a.984.984,0,0,1,.3-.8,1.1,1.1,0,0,1,1.9.8v8.5a4.4,4.4,0,0,0,1,3.2,4.641,4.641,0,0,0,6,0,4.4,4.4,0,0,0,1-3.2V70.7a1.1,1.1,0,1,1,2.2,0V79a5.623,5.623,0,0,1-6.3,6.3A6.054,6.054,0,0,1,541.9,83.7Z"/>
          <path id="Path_6" data-name="Path 6" d="M576.8,69.9a1.135,1.135,0,0,1,.3.8V84.2a1.135,1.135,0,0,1-.3.8.984.984,0,0,1-.8.3.908.908,0,0,1-.7-.3,1.135,1.135,0,0,1-.3-.8V74l-4.3,8.2c-.3.5-.6.8-1.1.8a1.4,1.4,0,0,1-1.1-.8l-4.3-8.1V84.2a1.135,1.135,0,0,1-.3.8.908.908,0,0,1-.7.3.779.779,0,0,1-.7-.3,1.135,1.135,0,0,1-.3-.8V70.7a1.032,1.032,0,0,1,1.1-1.1c.5,0,.8.3,1.1.8l5.3,10.1,5.2-10.1c.3-.5.6-.8,1.1-.8A1.136,1.136,0,0,1,576.8,69.9Z"/>
          <path id="Path_7" data-name="Path 7" d="M581,85a1.135,1.135,0,0,1-.3-.8V70.7a1.032,1.032,0,0,1,1.1-1.1.984.984,0,0,1,.8.3,1.135,1.135,0,0,1,.3.8V84.1a.984.984,0,0,1-.3.8,1.136,1.136,0,0,1-.8.3A.778.778,0,0,1,581,85Z"/>
          <path id="Path_8" data-name="Path 8" d="M598.9,84.4a.908.908,0,0,1-.3.7,1.08,1.08,0,0,1-.7.3,1.389,1.389,0,0,1-1-.5L594,80.3a2.892,2.892,0,0,0-1.1-1.1,3.34,3.34,0,0,0-1.5-.3h-2.5v5.4a.984.984,0,0,1-.3.8,1.1,1.1,0,0,1-1.9-.8V70.8a1.032,1.032,0,0,1,1.1-1.1h5.5a6.244,6.244,0,0,1,3.9,1.1,4.223,4.223,0,0,1,1.4,3.3,4.359,4.359,0,0,1-1,3,4.7,4.7,0,0,1-2.9,1.4,2.075,2.075,0,0,1,1,.6,5.307,5.307,0,0,1,.9,1.1l2.3,3.6C598.8,84,598.9,84.2,598.9,84.4Zm-6-7.5a3.56,3.56,0,0,0,2.5-.7,2.294,2.294,0,0,0,.8-2.1,2.865,2.865,0,0,0-.8-2.1,4.326,4.326,0,0,0-2.6-.6h-4.1v5.5h4.2Z"/>
          <path id="Path_9" data-name="Path 9" d="M602.1,85a1.135,1.135,0,0,1-.3-.8V70.7a1.032,1.032,0,0,1,1.1-1.1.984.984,0,0,1,.8.3,1.135,1.135,0,0,1,.3.8V84.1a.984.984,0,0,1-.3.8,1.136,1.136,0,0,1-.8.3A.778.778,0,0,1,602.1,85Z"/>
        </g>
        <g id="Group_4" data-name="Group 4" transform="translate(-3)">
          <path id="Path_15" data-name="Path 15" d="M575.5,117.7a4.2,4.2,0,0,1-1.5-.8.6.6,0,0,1-.3-.6c0-.2,0-.3.1-.4s.2-.2.3-.2a1.69,1.69,0,0,1,.5.2,4.678,4.678,0,0,0,2.8.9,2.861,2.861,0,0,0,1.7-.4,1.425,1.425,0,0,0,.6-1.2.961.961,0,0,0-.6-.9,9.3,9.3,0,0,0-1.8-.6,14.5,14.5,0,0,1-1.9-.6,2.73,2.73,0,0,1-1.2-.9,2.116,2.116,0,0,1-.4-1.4,2.456,2.456,0,0,1,.5-1.5,2.683,2.683,0,0,1,1.3-1,5.847,5.847,0,0,1,1.9-.4,4.844,4.844,0,0,1,1.8.3,4.678,4.678,0,0,1,1.4.8.864.864,0,0,1,.3.6c0,.2,0,.3-.1.4s-.2.2-.3.2a1.69,1.69,0,0,1-.5-.2,3.745,3.745,0,0,0-1.2-.7,5.213,5.213,0,0,0-1.4-.2,2.861,2.861,0,0,0-1.7.4,1.425,1.425,0,0,0-.6,1.2,1.231,1.231,0,0,0,.5,1,7.964,7.964,0,0,0,1.7.6,16.7,16.7,0,0,1,2,.6,3.6,3.6,0,0,1,1.2.8,2.168,2.168,0,0,1,.5,1.4,2.456,2.456,0,0,1-.5,1.5,3.249,3.249,0,0,1-1.3,1,5.917,5.917,0,0,1-2,.4A6.154,6.154,0,0,1,575.5,117.7Z"/>
          <path id="Path_16" data-name="Path 16" d="M584.3,117.7a.764.764,0,0,1-.2-.5v-8.5a.684.684,0,0,1,.7-.7h3.4a3.464,3.464,0,0,1,2.4.8,2.656,2.656,0,0,1,.9,2.2,2.792,2.792,0,0,1-.9,2.2,3.649,3.649,0,0,1-2.4.8h-2.6v3.3a.684.684,0,0,1-.7.7C584.6,117.9,584.4,117.9,584.3,117.7Zm5.8-6.8q0-1.8-2.1-1.8h-2.5v3.6H588Q590.1,112.85,590.1,110.9Z"/>
          <path id="Path_17" data-name="Path 17" d="M594.4,117.7a.764.764,0,0,1-.2-.5v-8.6a.7.7,0,1,1,1.4,0v8.6a.684.684,0,0,1-.7.7A.55.55,0,0,1,594.4,117.7Z"/>
        </g>
        <g id="Group_5" data-name="Group 5">
          <path id="Path_18" data-name="Path 18" d="M396,270.4a.908.908,0,0,1-.3.7,1.08,1.08,0,0,1-.7.3,1.389,1.389,0,0,1-1-.5l-2.9-4.6a2.892,2.892,0,0,0-1.1-1.1,3.339,3.339,0,0,0-1.5-.3H386v5.4a.984.984,0,0,1-.3.8,1.1,1.1,0,0,1-1.9-.8V256.9a1.032,1.032,0,0,1,1.1-1.1h5.5a6.244,6.244,0,0,1,3.9,1.1,4.223,4.223,0,0,1,1.4,3.3,4.359,4.359,0,0,1-1,3,4.7,4.7,0,0,1-2.9,1.4,2.075,2.075,0,0,1,1,.6,5.3,5.3,0,0,1,.9,1.1l2.3,3.6C395.9,270,396,270.2,396,270.4Zm-5.9-7.5a3.56,3.56,0,0,0,2.5-.7,2.564,2.564,0,0,0,.8-2.1,2.865,2.865,0,0,0-.8-2.1,4.326,4.326,0,0,0-2.6-.6h-4.1v5.5h4.2Z"/>
          <path id="Path_19" data-name="Path 19" d="M413.5,255.9a1.135,1.135,0,0,1,.3.8v13.5a1.136,1.136,0,0,1-.3.8.984.984,0,0,1-.8.3.779.779,0,0,1-.7-.3,1.909,1.909,0,0,1-.3-.8V260l-4.3,8.2c-.3.5-.6.8-1.1.8a1.4,1.4,0,0,1-1.1-.8l-4.3-8.1v10.1a1.136,1.136,0,0,1-.3.8.908.908,0,0,1-.7.3.779.779,0,0,1-.7-.3,1.135,1.135,0,0,1-.3-.8V256.7a1.032,1.032,0,0,1,1.1-1.1c.5,0,.8.3,1.1.8l5.3,10.1,5.2-10.1c.3-.5.6-.8,1.1-.8A1.136,1.136,0,0,1,413.5,255.9Z"/>
          <path id="Path_20" data-name="Path 20" d="M418.9,269.7a6.237,6.237,0,0,1-1.6-4.7v-8.3a.984.984,0,0,1,.3-.8,1.1,1.1,0,0,1,1.9.8v8.5a4.4,4.4,0,0,0,1,3.2,4.641,4.641,0,0,0,6,0,4.4,4.4,0,0,0,1-3.2v-8.5a1.1,1.1,0,1,1,2.2,0V265a5.623,5.623,0,0,1-6.3,6.3A6.054,6.054,0,0,1,418.9,269.7Z"/>
          <path id="Path_21" data-name="Path 21" d="M450.4,264.5a4.263,4.263,0,0,1-.7,5.5,6.132,6.132,0,0,1-3.8,1.1h-5.6a.984.984,0,0,1-.8-.3,1.135,1.135,0,0,1-.3-.8V256.7a1.032,1.032,0,0,1,1.1-1.1h5.4a6.342,6.342,0,0,1,3.8,1.1,3.365,3.365,0,0,1,1.4,3,3.7,3.7,0,0,1-.6,2.1,3.523,3.523,0,0,1-1.8,1.3A5.222,5.222,0,0,1,450.4,264.5Zm-9-2.1h3.9c2.2,0,3.3-.8,3.3-2.5a2.2,2.2,0,0,0-.8-1.8,4.183,4.183,0,0,0-2.5-.6h-3.9Zm6.8,6.3a2.268,2.268,0,0,0,.8-1.9,2.629,2.629,0,0,0-.8-2,4.183,4.183,0,0,0-2.5-.6h-4.3v5.1h4.3A4.184,4.184,0,0,0,448.2,268.7Z"/>
          <path id="Path_22" data-name="Path 22" d="M467.7,270.3a.908.908,0,0,1-.3.7,1.135,1.135,0,0,1-.8.3.764.764,0,0,1-.5-.2,1,1,0,0,1-.4-.5l-1.5-3.3h-8.1l-1.5,3.3a1,1,0,0,1-.4.5,1.69,1.69,0,0,1-.5.2,1.136,1.136,0,0,1-.8-.3.908.908,0,0,1-.3-.7.6.6,0,0,1,.1-.4l6.2-13.6a1.2,1.2,0,0,1,.5-.5,1.325,1.325,0,0,1,1.4,0,1.2,1.2,0,0,1,.5.5l6.2,13.6A.4.4,0,0,1,467.7,270.3ZM457,265.5h6.4l-3.2-7.3Z"/>
          <path id="Path_23" data-name="Path 23" d="M472.2,271a1.135,1.135,0,0,1-.3-.8V257.6h-4.4c-.7,0-1.1-.3-1.1-.9a.908.908,0,0,1,.3-.7c.2-.2.4-.2.8-.2h11.1a1.884,1.884,0,0,1,.8.2.908.908,0,0,1,.3.7c0,.6-.4.9-1.1.9h-4.4v12.6a1.032,1.032,0,0,1-1.1,1.1A1.222,1.222,0,0,1,472.2,271Z"/>
          <path id="Path_24" data-name="Path 24" d="M483,269.7a6.237,6.237,0,0,1-1.6-4.7v-8.3a.984.984,0,0,1,.3-.8,1.1,1.1,0,0,1,1.9.8v8.5a4.4,4.4,0,0,0,1,3.2,4.641,4.641,0,0,0,6,0,4.4,4.4,0,0,0,1-3.2v-8.5a1.1,1.1,0,1,1,2.2,0V265a5.623,5.623,0,0,1-6.3,6.3A6.054,6.054,0,0,1,483,269.7Z"/>
          <path id="Path_25" data-name="Path 25" d="M515.8,255.9a1.135,1.135,0,0,1,.3.8v13.4a1.032,1.032,0,0,1-1.1,1.1.975.975,0,0,1-.9-.4l-8.6-11.4v10.7a1.1,1.1,0,1,1-2.2,0V256.7a1.032,1.032,0,0,1,1.1-1.1.975.975,0,0,1,.9.4l8.6,11.4V256.7a1.135,1.135,0,0,1,.3-.8,1.217,1.217,0,0,1,1.6,0Z"/>
          <path id="Path_26" data-name="Path 26" d="M520,271a1.135,1.135,0,0,1-.3-.8V256.8a1.032,1.032,0,0,1,1.1-1.1.984.984,0,0,1,.8.3,1.135,1.135,0,0,1,.3.8v13.4a.984.984,0,0,1-.3.8,1.217,1.217,0,0,1-1.6,0Z"/>
          <path id="Path_27" data-name="Path 27" d="M539.3,270.3a.908.908,0,0,1-.3.7,1.135,1.135,0,0,1-.8.3.764.764,0,0,1-.5-.2,1,1,0,0,1-.4-.5l-1.5-3.3h-8.1l-1.5,3.3a1,1,0,0,1-.4.5,1.69,1.69,0,0,1-.5.2,1.136,1.136,0,0,1-.8-.3.908.908,0,0,1-.3-.7.6.6,0,0,1,.1-.4l6.2-13.6a1.2,1.2,0,0,1,.5-.5,1.325,1.325,0,0,1,1.4,0,1.2,1.2,0,0,1,.5.5l6.2,13.6A.4.4,0,0,1,539.3,270.3Zm-10.7-4.8H535l-3.2-7.3Z"/>
          <path id="Path_28" data-name="Path 28" d="M554.5,255.9a1.135,1.135,0,0,1,.3.8v13.4a1.1,1.1,0,1,1-2.2,0v-5.9h-8.7v5.9a1.1,1.1,0,1,1-2.2,0V256.7a1.1,1.1,0,1,1,2.2,0v5.7h8.7v-5.7a1.032,1.032,0,0,1,1.1-1.1A.984.984,0,0,1,554.5,255.9Z"/>
        </g>
        <g id="Group_7" data-name="Group 7" transform="translate(4 1)">
          <path id="Path_34" data-name="Path 34" d="M448.5,304.7a4.2,4.2,0,0,1-1.5-.8.6.6,0,0,1-.3-.6c0-.2,0-.3.1-.4s.2-.2.3-.2a1.69,1.69,0,0,1,.5.2,4.678,4.678,0,0,0,2.8.9,2.861,2.861,0,0,0,1.7-.4,1.426,1.426,0,0,0,.6-1.2.961.961,0,0,0-.6-.9,9.3,9.3,0,0,0-1.8-.6,14.5,14.5,0,0,1-1.9-.6,2.73,2.73,0,0,1-1.2-.9,2.116,2.116,0,0,1-.4-1.4,2.456,2.456,0,0,1,.5-1.5,2.683,2.683,0,0,1,1.3-1,5.847,5.847,0,0,1,1.9-.4,4.845,4.845,0,0,1,1.8.3,4.678,4.678,0,0,1,1.4.8.864.864,0,0,1,.3.6c0,.2,0,.3-.1.4s-.2.2-.3.2a1.69,1.69,0,0,1-.5-.2,3.746,3.746,0,0,0-1.2-.7,5.212,5.212,0,0,0-1.4-.2,2.861,2.861,0,0,0-1.7.4,1.426,1.426,0,0,0-.6,1.2,1.231,1.231,0,0,0,.5,1,7.963,7.963,0,0,0,1.7.6,16.7,16.7,0,0,1,2,.6,3.6,3.6,0,0,1,1.2.8,2.168,2.168,0,0,1,.5,1.4,2.456,2.456,0,0,1-.5,1.5,3.249,3.249,0,0,1-1.3,1,5.917,5.917,0,0,1-2,.4A6.154,6.154,0,0,1,448.5,304.7Z"/>
          <path id="Path_35" data-name="Path 35" d="M457.3,304.7a.764.764,0,0,1-.2-.5v-8.5a.684.684,0,0,1,.7-.7h3.4a3.464,3.464,0,0,1,2.4.8,2.656,2.656,0,0,1,.9,2.2,2.792,2.792,0,0,1-.9,2.2,3.649,3.649,0,0,1-2.4.8h-2.6v3.3a.684.684,0,0,1-.7.7C457.6,304.9,457.4,304.9,457.3,304.7Zm5.8-6.8q0-1.8-2.1-1.8h-2.5v3.6H461Q463.1,299.85,463.1,297.9Z"/>
          <path id="Path_36" data-name="Path 36" d="M467.4,304.7a.764.764,0,0,1-.2-.5v-8.6a.7.7,0,1,1,1.4,0v8.6a.684.684,0,0,1-.7.7A.551.551,0,0,1,467.4,304.7Z"/>
        </g>
        <rect id="Rectangle_2" data-name="Rectangle 2" width="154" height="77.5" transform="translate(489.5 54.3)" fill="none" stroke="#9dc3e6" stroke-width="3"/>
        <rect id="Rectangle_3" data-name="Rectangle 3" width="337.4" height="105.8" transform="translate(55.1 52.3)" fill="none" stroke="#9dc3e6" stroke-width="3"/>
        <g id="Group_8" data-name="Group 8">
          <path id="Path_37" data-name="Path 37" d="M81.7,93.1a8.361,8.361,0,0,1-3.2-3.5,12.53,12.53,0,0,1-1.1-5.3,12.671,12.671,0,0,1,1.1-5.4,7.765,7.765,0,0,1,3.2-3.5,10.6,10.6,0,0,1,9.8,0,8.361,8.361,0,0,1,3.2,3.5,12.671,12.671,0,0,1,1.1,5.4,13,13,0,0,1-1.1,5.4,7.765,7.765,0,0,1-3.2,3.5,9.619,9.619,0,0,1-4.9,1.2A10.774,10.774,0,0,1,81.7,93.1ZM91.2,90a8.8,8.8,0,0,0,1.7-5.7,8.793,8.793,0,0,0-1.6-5.7,6.29,6.29,0,0,0-9.2,0c-1.1,1.3-1.6,3.2-1.6,5.7s.5,4.4,1.6,5.7a5.688,5.688,0,0,0,4.6,2A5.765,5.765,0,0,0,91.2,90Z"/>
          <path id="Path_38" data-name="Path 38" d="M109.5,80.4a1.445,1.445,0,0,1,.7-.2,1.372,1.372,0,0,1,1.3,1.3.749.749,0,0,1-.1.5l-5.3,11.3a1.344,1.344,0,0,1-.6.7,1.486,1.486,0,0,1-.9.2,2.92,2.92,0,0,1-.9-.2,1.057,1.057,0,0,1-.6-.7L97.8,82a.749.749,0,0,1-.1-.5,1.222,1.222,0,0,1,.4-.9,1.777,1.777,0,0,1,1-.4,1.411,1.411,0,0,1,1.2.8l4.3,9.6L109,81A1.024,1.024,0,0,1,109.5,80.4Z"/>
          <path id="Path_39" data-name="Path 39" d="M125,91a1.136,1.136,0,0,1,.3.8,1.662,1.662,0,0,1-1,1.4,9.494,9.494,0,0,1-2.1.9,8.918,8.918,0,0,1-2.2.3,6.568,6.568,0,0,1-5.1-1.9,6.947,6.947,0,0,1-1.9-5.2,8.744,8.744,0,0,1,.8-3.7,6.194,6.194,0,0,1,2.3-2.5,6.4,6.4,0,0,1,3.4-.9,5.372,5.372,0,0,1,4.3,1.8,6.8,6.8,0,0,1,1.6,4.8c0,.7-.3,1.1-1,1.1h-8.7c.2,2.9,1.6,4.3,4.2,4.3a4.844,4.844,0,0,0,1.8-.3c.5-.2,1-.4,1.6-.7.1,0,.2-.1.5-.2a3.933,3.933,0,0,1,.6-.2C124.6,90.7,124.8,90.8,125,91Zm-8.1-7.8a5.129,5.129,0,0,0-1.2,2.9h7.2a4.776,4.776,0,0,0-1-2.9,3.04,3.04,0,0,0-2.5-1A3.174,3.174,0,0,0,116.9,83.2Z"/>
          <path id="Path_40" data-name="Path 40" d="M137,81.3a1.222,1.222,0,0,1-.3.9,2.3,2.3,0,0,1-1.1.4l-.8.1a3.564,3.564,0,0,0-2.6,1.2,3.916,3.916,0,0,0-.9,2.6v6.4a1.16,1.16,0,0,1-.4,1,1.689,1.689,0,0,1-1,.3,1.493,1.493,0,0,1-1-.3,1.159,1.159,0,0,1-.4-1V81.5a1.16,1.16,0,0,1,.4-1,1.689,1.689,0,0,1,1-.3,1.222,1.222,0,0,1,.9.3,1.159,1.159,0,0,1,.4,1v1.3a4.944,4.944,0,0,1,1.6-1.9,6.193,6.193,0,0,1,2.4-.8h.4C136.5,80.1,137,80.5,137,81.3Z"/>
          <path id="Path_41" data-name="Path 41" d="M148.4,81.5a5.722,5.722,0,0,1,1.3,4.2V93a1.16,1.16,0,0,1-.4,1,1.528,1.528,0,0,1-1,.4,1.284,1.284,0,0,1-1-.4,1.528,1.528,0,0,1-.4-1V92a4.034,4.034,0,0,1-1.6,1.8,4.871,4.871,0,0,1-2.5.6,6.963,6.963,0,0,1-2.5-.5,6.549,6.549,0,0,1-1.8-1.5,4.032,4.032,0,0,1-.6-2.2,3.188,3.188,0,0,1,.8-2.4,4.21,4.21,0,0,1,2.5-1.2,28.115,28.115,0,0,1,4.9-.4h.6v-.8a3.715,3.715,0,0,0-.6-2.3,2.541,2.541,0,0,0-2.1-.7,4.844,4.844,0,0,0-1.8.3c-.6.2-1.2.4-1.9.7a2.429,2.429,0,0,1-1.1.4.908.908,0,0,1-.7-.3,1.136,1.136,0,0,1-.3-.8,1.445,1.445,0,0,1,.2-.7,2.761,2.761,0,0,1,.8-.6,12.254,12.254,0,0,1,2.3-.9,11.342,11.342,0,0,1,2.5-.3C146.2,80.1,147.5,80.6,148.4,81.5ZM146,91.2a3.62,3.62,0,0,0,1-2.7v-.7h-.5a26.825,26.825,0,0,0-3.4.2,3.358,3.358,0,0,0-1.7.7,1.9,1.9,0,0,0-.5,1.3,2.193,2.193,0,0,0,.7,1.7,2.792,2.792,0,0,0,1.8.6A3.683,3.683,0,0,0,146,91.2Z"/>
          <path id="Path_42" data-name="Path 42" d="M154,93.9a1.159,1.159,0,0,1-.4-1V75.6a1.16,1.16,0,0,1,.4-1,1.777,1.777,0,0,1,1-.4,1.284,1.284,0,0,1,1,.4,1.159,1.159,0,0,1,.4,1V92.9a1.16,1.16,0,0,1-.4,1,1.689,1.689,0,0,1-1,.3A1.209,1.209,0,0,1,154,93.9Z"/>
          <path id="Path_43" data-name="Path 43" d="M160.8,93.9a1.159,1.159,0,0,1-.4-1V75.6a1.16,1.16,0,0,1,.4-1,1.777,1.777,0,0,1,1-.4,1.284,1.284,0,0,1,1,.4,1.159,1.159,0,0,1,.4,1V92.9a1.16,1.16,0,0,1-.4,1,1.689,1.689,0,0,1-1,.3A1.209,1.209,0,0,1,160.8,93.9Z"/>
          <path id="Path_44" data-name="Path 44" d="M177.4,93.8a8.239,8.239,0,0,1-3.1-1.6,1.274,1.274,0,0,1-.5-1.1,1.613,1.613,0,0,1,.3-.9.908.908,0,0,1,.7-.3,1.616,1.616,0,0,1,1,.4,9.654,9.654,0,0,0,5.7,1.8,6.317,6.317,0,0,0,3.4-.8,2.851,2.851,0,0,0,1.2-2.4,1.992,1.992,0,0,0-1.1-1.8,14.708,14.708,0,0,0-3.6-1.2,20.953,20.953,0,0,1-3.9-1.1,5.46,5.46,0,0,1-2.4-1.8,4.47,4.47,0,0,1-.9-2.8,5.068,5.068,0,0,1,.9-3,6.066,6.066,0,0,1,2.6-2.1,9.2,9.2,0,0,1,3.8-.7,11.476,11.476,0,0,1,3.7.6,7.674,7.674,0,0,1,2.9,1.7,1.382,1.382,0,0,1,.6,1.1,1.136,1.136,0,0,1-.3.8,1.012,1.012,0,0,1-.7.4,1.394,1.394,0,0,1-.9-.4,10.454,10.454,0,0,0-2.4-1.4,7.664,7.664,0,0,0-2.7-.4,5.714,5.714,0,0,0-3.4.9,2.908,2.908,0,0,0-1.2,2.5,2.191,2.191,0,0,0,1.1,2,8.739,8.739,0,0,0,3.4,1.2,33.393,33.393,0,0,1,4,1.2,6.137,6.137,0,0,1,2.4,1.7,4,4,0,0,1,.9,2.7,5.291,5.291,0,0,1-.9,3,5.877,5.877,0,0,1-2.6,2,9.374,9.374,0,0,1-3.9.7C180,94.3,178.7,94.1,177.4,93.8Z"/>
          <path id="Path_45" data-name="Path 45" d="M192.9,93.9a1.366,1.366,0,0,1-.4-1.1v-17a1.16,1.16,0,0,1,.4-1,1.777,1.777,0,0,1,1-.4h6.7a7.359,7.359,0,0,1,4.9,1.5,5.389,5.389,0,0,1,1.7,4.4,5.873,5.873,0,0,1-1.7,4.4,6.738,6.738,0,0,1-4.9,1.6h-5.3v6.6a1.5,1.5,0,0,1-.4,1.1,1.366,1.366,0,0,1-1.1.4A2.622,2.622,0,0,1,192.9,93.9Zm11.6-13.6c0-2.4-1.4-3.6-4.1-3.6h-5v7.2h5C203.1,83.9,204.5,82.7,204.5,80.3Z"/>
          <path id="Path_46" data-name="Path 46" d="M211.1,93.9a1.366,1.366,0,0,1-.4-1.1V75.7a1.5,1.5,0,0,1,.4-1.1,1.284,1.284,0,0,1,1-.4,1.5,1.5,0,0,1,1.1.4,1.366,1.366,0,0,1,.4,1.1V92.8a1.5,1.5,0,0,1-.4,1.1,1.366,1.366,0,0,1-1.1.4A1.777,1.777,0,0,1,211.1,93.9Z"/>
          <path id="Path_47" data-name="Path 47" d="M244.1,74.6a1.366,1.366,0,0,1,.4,1.1V92.9a1.493,1.493,0,0,1-.3,1,1.528,1.528,0,0,1-1,.4.975.975,0,0,1-.9-.4,1.493,1.493,0,0,1-.3-1v-13l-5.5,10.4c-.4.7-.8,1-1.4,1s-1-.3-1.4-1L228.2,80V92.9a1.493,1.493,0,0,1-.3,1,1.333,1.333,0,0,1-1,.4.975.975,0,0,1-.9-.4,1.689,1.689,0,0,1-.3-1V75.7a1.5,1.5,0,0,1,.4-1.1,1.284,1.284,0,0,1,1-.4c.6,0,1,.3,1.4,1L235.2,88l6.6-12.8c.4-.7.8-1,1.4-1A1.489,1.489,0,0,1,244.1,74.6Z"/>
          <path id="Path_48" data-name="Path 48" d="M248.9,77a1.69,1.69,0,0,1,0-2.4,1.7,1.7,0,0,1,1.3-.4,2.01,2.01,0,0,1,1.3.4,1.69,1.69,0,0,1,0,2.4,1.7,1.7,0,0,1-1.3.4A1.844,1.844,0,0,1,248.9,77Zm.3,16.9a1.159,1.159,0,0,1-.4-1V81.5a1.16,1.16,0,0,1,.4-1,1.817,1.817,0,0,1,2,0,1.159,1.159,0,0,1,.4,1V92.9a1.16,1.16,0,0,1-.4,1,1.689,1.689,0,0,1-1,.3A1.209,1.209,0,0,1,249.2,93.9Z"/>
          <path id="Path_49" data-name="Path 49" d="M264.1,81.3a1.222,1.222,0,0,1-.3.9,2.3,2.3,0,0,1-1.1.4l-.8.1a3.564,3.564,0,0,0-2.6,1.2,3.916,3.916,0,0,0-.9,2.6v6.4a1.16,1.16,0,0,1-.4,1,1.689,1.689,0,0,1-1,.3,1.493,1.493,0,0,1-1-.3,1.159,1.159,0,0,1-.4-1V81.5a1.16,1.16,0,0,1,.4-1,1.689,1.689,0,0,1,1-.3,1.222,1.222,0,0,1,.9.3,1.16,1.16,0,0,1,.4,1v1.3a4.944,4.944,0,0,1,1.6-1.9,6.194,6.194,0,0,1,2.4-.8h.4C263.6,80.1,264.1,80.5,264.1,81.3Z"/>
          <path id="Path_50" data-name="Path 50" d="M266,77a1.69,1.69,0,0,1,0-2.4,1.7,1.7,0,0,1,1.3-.4,2.01,2.01,0,0,1,1.3.4,1.69,1.69,0,0,1,0,2.4,2.312,2.312,0,0,1-2.6,0Zm.2,16.9a1.16,1.16,0,0,1-.4-1V81.5a1.16,1.16,0,0,1,.4-1,1.817,1.817,0,0,1,2,0,1.16,1.16,0,0,1,.4,1V92.9a1.16,1.16,0,0,1-.4,1,1.689,1.689,0,0,1-1,.3A1.209,1.209,0,0,1,266.2,93.9Z"/>
          <path id="Path_51" data-name="Path 51" d="M280.7,93.7a1.284,1.284,0,0,1-.4-1V75.8a1.16,1.16,0,0,1,.4-1,1.777,1.777,0,0,1,1-.4h5.5c3.2,0,5.7.9,7.4,2.6,1.8,1.7,2.6,4.1,2.6,7.3a10.006,10.006,0,0,1-2.6,7.3c-1.7,1.7-4.2,2.6-7.4,2.6h-5.5A1.905,1.905,0,0,1,280.7,93.7Zm13.7-9.5c0-5-2.4-7.4-7.3-7.4h-3.9V91.7h3.9C291.9,91.7,294.4,89.2,294.4,84.2Z"/>
          <path id="Path_52" data-name="Path 52" d="M301,77a1.69,1.69,0,0,1,0-2.4,1.7,1.7,0,0,1,1.3-.4,2.01,2.01,0,0,1,1.3.4,1.69,1.69,0,0,1,0,2.4,2.312,2.312,0,0,1-2.6,0Zm.3,16.9a1.16,1.16,0,0,1-.4-1V81.5a1.16,1.16,0,0,1,.4-1,1.817,1.817,0,0,1,2,0,1.16,1.16,0,0,1,.4,1V92.9a1.16,1.16,0,0,1-.4,1,1.689,1.689,0,0,1-1,.3A1.209,1.209,0,0,1,301.3,93.9Z"/>
          <path id="Path_53" data-name="Path 53" d="M317.9,80.4a1.445,1.445,0,0,1,.7-.2.975.975,0,0,1,.9.4,1.489,1.489,0,0,1,.4.9.749.749,0,0,1-.1.5l-5.3,11.3a1.344,1.344,0,0,1-.6.7,1.486,1.486,0,0,1-.9.2,2.92,2.92,0,0,1-.9-.2,1.057,1.057,0,0,1-.6-.7L306.2,82a.749.749,0,0,1-.1-.5,1.222,1.222,0,0,1,.4-.9,1.777,1.777,0,0,1,1-.4,1.411,1.411,0,0,1,1.2.8l4.3,9.6,4.3-9.6C317.5,80.7,317.6,80.5,317.9,80.4Z"/>
          <path id="Path_54" data-name="Path 54" d="M322.8,77a1.69,1.69,0,0,1,0-2.4,1.7,1.7,0,0,1,1.3-.4,2.01,2.01,0,0,1,1.3.4,1.69,1.69,0,0,1,0,2.4,2.312,2.312,0,0,1-2.6,0Zm.2,16.9a1.16,1.16,0,0,1-.4-1V81.5a1.16,1.16,0,0,1,.4-1,1.817,1.817,0,0,1,2,0,1.16,1.16,0,0,1,.4,1V92.9a1.16,1.16,0,0,1-.4,1,1.689,1.689,0,0,1-1,.3A1.209,1.209,0,0,1,323,93.9Z"/>
          <path id="Path_55" data-name="Path 55" d="M329.5,93.1a2.169,2.169,0,0,1-.7-.6,1.884,1.884,0,0,1-.2-.8,1.136,1.136,0,0,1,.3-.8.864.864,0,0,1,.6-.3,2.429,2.429,0,0,1,1.1.4c.6.3,1.1.5,1.6.7a5.618,5.618,0,0,0,2,.3,4.064,4.064,0,0,0,2.1-.5,1.561,1.561,0,0,0,.8-1.3,1.222,1.222,0,0,0-.3-.9,2.887,2.887,0,0,0-1-.6,12.87,12.87,0,0,0-2.2-.6,9,9,0,0,1-3.5-1.4,3.1,3.1,0,0,1-1.1-2.5,3.6,3.6,0,0,1,.7-2.2,5.755,5.755,0,0,1,1.9-1.5,6.36,6.36,0,0,1,2.8-.5,8.329,8.329,0,0,1,2.2.3,6.632,6.632,0,0,1,1.9.9,1.74,1.74,0,0,1,.9,1.4,1.136,1.136,0,0,1-.3.8.864.864,0,0,1-.6.3.9.9,0,0,1-.5-.1,5.736,5.736,0,0,1-.7-.4c-.5-.3-1-.5-1.4-.7a3.808,3.808,0,0,0-1.6-.3,3.557,3.557,0,0,0-1.9.5,1.513,1.513,0,0,0-.7,1.4,1.306,1.306,0,0,0,.7,1.2,7.258,7.258,0,0,0,2.5.8,16.97,16.97,0,0,1,2.9.9,3.777,3.777,0,0,1,1.5,1.2,3.557,3.557,0,0,1,.5,1.9,3.388,3.388,0,0,1-1.5,2.9,7.115,7.115,0,0,1-4.1,1.1A7.024,7.024,0,0,1,329.5,93.1Z"/>
          <path id="Path_56" data-name="Path 56" d="M343,77a1.69,1.69,0,0,1,0-2.4,1.7,1.7,0,0,1,1.3-.4,2.01,2.01,0,0,1,1.3.4,1.69,1.69,0,0,1,0,2.4,1.7,1.7,0,0,1-1.3.4A1.844,1.844,0,0,1,343,77Zm.3,16.9a1.16,1.16,0,0,1-.4-1V81.5a1.16,1.16,0,0,1,.4-1,1.817,1.817,0,0,1,2,0,1.16,1.16,0,0,1,.4,1V92.9a1.16,1.16,0,0,1-.4,1,1.689,1.689,0,0,1-1,.3A1.209,1.209,0,0,1,343.3,93.9Z"/>
          <path id="Path_57" data-name="Path 57" d="M352.1,93.4a6.423,6.423,0,0,1-2.4-2.5,7.464,7.464,0,0,1-.8-3.7,9.213,9.213,0,0,1,.8-3.8,5.284,5.284,0,0,1,2.4-2.5,7.018,7.018,0,0,1,3.5-.9,6.756,6.756,0,0,1,3.5.9,6.423,6.423,0,0,1,2.4,2.5,7.614,7.614,0,0,1,.8,3.8,8.414,8.414,0,0,1-.8,3.7,5.8,5.8,0,0,1-2.4,2.5,7.256,7.256,0,0,1-7,0Zm6.4-2.6a5.336,5.336,0,0,0,1-3.6,5.336,5.336,0,0,0-1-3.6,3.561,3.561,0,0,0-2.9-1.2,3.7,3.7,0,0,0-2.9,1.2,5.336,5.336,0,0,0-1,3.6,5.336,5.336,0,0,0,1,3.6,3.561,3.561,0,0,0,2.9,1.2A3.059,3.059,0,0,0,358.5,90.8Z"/>
          <path id="Path_58" data-name="Path 58" d="M377.7,85.6v7.3a1.16,1.16,0,0,1-.4,1,1.777,1.777,0,0,1-1,.4,1.367,1.367,0,0,1-1.4-1.4V85.8a3.4,3.4,0,0,0-.7-2.5,2.865,2.865,0,0,0-2.1-.8,3.534,3.534,0,0,0-2.7,1.1,3.945,3.945,0,0,0-1,2.9v6.6a1.284,1.284,0,0,1-.4,1,1.777,1.777,0,0,1-1,.4,1.367,1.367,0,0,1-1.4-1.4V81.5a1.414,1.414,0,0,1,2.4-1,1.528,1.528,0,0,1,.4,1v1.1a4.953,4.953,0,0,1,1.9-1.9,5.954,5.954,0,0,1,2.7-.6C376.1,80.1,377.7,82,377.7,85.6Z"/>
        </g>
        <g id="Group_10" data-name="Group 10" transform="translate(3 3)">
          <path id="Path_64" data-name="Path 64" d="M159.7,133.6a5.076,5.076,0,0,1-1.8-.9,1.039,1.039,0,0,1-.4-.8,1.422,1.422,0,0,1,.2-.6c.1-.2.3-.2.5-.2a2.544,2.544,0,0,1,.7.2,4.59,4.59,0,0,0,1.4.7,8.806,8.806,0,0,0,1.7.2,3.007,3.007,0,0,0,1.8-.4,1.425,1.425,0,0,0,.6-1.2.961.961,0,0,0-.6-.9,8.537,8.537,0,0,0-1.9-.6,10.494,10.494,0,0,1-2.3-.7,3.448,3.448,0,0,1-1.3-1,2.537,2.537,0,0,1-.4-1.6,2.792,2.792,0,0,1,.6-1.8,3.977,3.977,0,0,1,1.6-1.2,5.381,5.381,0,0,1,2.2-.4,5.489,5.489,0,0,1,3.7,1.2l.3.3a.6.6,0,0,1,.1.4,1.421,1.421,0,0,1-.2.6c-.1.2-.3.2-.5.2h-.3c-.1,0-.2-.1-.4-.2a4.15,4.15,0,0,0-1.3-.7,3.416,3.416,0,0,0-1.5-.2,2.861,2.861,0,0,0-1.7.4,1.426,1.426,0,0,0-.6,1.2,1.1,1.1,0,0,0,.6,1,7.7,7.7,0,0,0,1.9.7,21.9,21.9,0,0,1,2.3.7,5.02,5.02,0,0,1,1.4,1,1.964,1.964,0,0,1,.5,1.5,3,3,0,0,1-.6,1.8,3.252,3.252,0,0,1-1.6,1.2,5.558,5.558,0,0,1-2.3.4A6.345,6.345,0,0,1,159.7,133.6Z"/>
          <path id="Path_65" data-name="Path 65" d="M169.8,133.6a.984.984,0,0,1-.3-.8v-9.4a1.025,1.025,0,0,1,1-1h3.9a4.1,4.1,0,0,1,2.8.9,3.625,3.625,0,0,1,0,5,4.1,4.1,0,0,1-2.8.9h-2.9v3.4a1.136,1.136,0,0,1-.3.8.984.984,0,0,1-.8.3C170.3,133.9,170,133.8,169.8,133.6Zm6.6-7.6c0-1.2-.7-1.9-2.1-1.9h-2.6v3.7h2.6C175.6,127.8,176.4,127.2,176.4,126Z"/>
          <path id="Path_66" data-name="Path 66" d="M181.6,133.6a.984.984,0,0,1-.3-.8v-9.4a.779.779,0,0,1,.3-.7.908.908,0,0,1,.7-.3,1.135,1.135,0,0,1,.8.3.908.908,0,0,1,.3.7v9.4a1.136,1.136,0,0,1-.3.8.984.984,0,0,1-.8.3A.908.908,0,0,1,181.6,133.6Z"/>
        </g>
        <path id="Path_67" data-name="Path 67" d="M10.53-13.74a6.334,6.334,0,0,1,3.315.87,6.075,6.075,0,0,1,2.28,2.43A7.456,7.456,0,0,1,16.95-6.9a7.36,7.36,0,0,1-.93,3.7,6.589,6.589,0,0,1-2.58,2.55A7.54,7.54,0,0,1,9.72.27,7.779,7.779,0,0,1,3.36-2.46q-2.25-2.73-2.25-7.8a15.405,15.405,0,0,1,1.05-5.925A8.512,8.512,0,0,1,5.175-20.07,7.881,7.881,0,0,1,9.75-21.42a11.033,11.033,0,0,1,3.45.57,8.971,8.971,0,0,1,2.97,1.59,2.215,2.215,0,0,1,.615.7,1.964,1.964,0,0,1,.195.915,2.1,2.1,0,0,1-.435,1.335,1.31,1.31,0,0,1-1.065.555,1.953,1.953,0,0,1-.675-.1,5.708,5.708,0,0,1-.765-.375A18.187,18.187,0,0,0,11.9-17.355a4.868,4.868,0,0,0-1.935-.4,3.359,3.359,0,0,0-2.955,1.71,9.791,9.791,0,0,0-1.245,4.8,4.959,4.959,0,0,1,1.95-1.815A5.876,5.876,0,0,1,10.53-13.74ZM9.45-3.36a2.93,2.93,0,0,0,2.265-.93,3.492,3.492,0,0,0,.855-2.46,3.449,3.449,0,0,0-.855-2.43,2.93,2.93,0,0,0-2.265-.93,2.977,2.977,0,0,0-2.28.93A3.414,3.414,0,0,0,6.3-6.75,3.468,3.468,0,0,0,7.17-4.3,2.954,2.954,0,0,0,9.45-3.36Zm23.73-.39q2.19,0,2.19,1.86Q35.37,0,33.18,0H22.92Q20.7,0,20.7-1.89q0-1.86,2.22-1.86h2.79V-16.02l-2.64,1.59a1.736,1.736,0,0,1-.9.27,1.6,1.6,0,0,1-1.275-.63,2.147,2.147,0,0,1-.525-1.41,1.733,1.733,0,0,1,.93-1.59l4.74-2.85a4.052,4.052,0,0,1,2.1-.63,2.222,2.222,0,0,1,1.62.615,2.22,2.22,0,0,1,.63,1.665V-3.75ZM39.9.18a2.453,2.453,0,0,1-1.83-.735A2.53,2.53,0,0,1,37.35-2.4a2.53,2.53,0,0,1,.72-1.845A2.453,2.453,0,0,1,39.9-4.98a2.453,2.453,0,0,1,1.83.735A2.53,2.53,0,0,1,42.45-2.4a2.53,2.53,0,0,1-.72,1.845A2.453,2.453,0,0,1,39.9.18ZM58.86-21.15a1.885,1.885,0,0,1,1.44.54,1.929,1.929,0,0,1,.51,1.38,3.41,3.41,0,0,1-.48,1.71L50.97-.96a2.217,2.217,0,0,1-.855.93,2.177,2.177,0,0,1-1.095.3,2.282,2.282,0,0,1-1.56-.615,1.95,1.95,0,0,1-.69-1.515,2.36,2.36,0,0,1,.33-1.2L55.29-17.4H46.98q-2.19,0-2.19-1.86,0-1.89,2.19-1.89ZM77.4-7.44q2.19,0,2.19,1.77,0,1.8-2.19,1.8H76.29v1.71a2.29,2.29,0,0,1-.63,1.74,2.294,2.294,0,0,1-1.65.6,2.294,2.294,0,0,1-1.65-.6,2.29,2.29,0,0,1-.63-1.74V-3.87H64.44a1.956,1.956,0,0,1-1.47-.555,1.92,1.92,0,0,1-.54-1.395A2.975,2.975,0,0,1,63-7.5l8.94-12.78a2.283,2.283,0,0,1,.9-.765,2.638,2.638,0,0,1,1.14-.255,2.357,2.357,0,0,1,1.62.615,2.154,2.154,0,0,1,.69,1.7V-7.44Zm-10.26,0h4.59v-6.6Z" transform="translate(76.5 131.3)"/>
        <path id="Path_68" data-name="Path 68" d="M8.088-10.824a5.591,5.591,0,0,1,2.8.684,4.8,4.8,0,0,1,1.884,1.908,5.739,5.739,0,0,1,.672,2.808A5.621,5.621,0,0,1,12.684-2.5a5.166,5.166,0,0,1-2.136,1.98,6.871,6.871,0,0,1-3.18.708A8.893,8.893,0,0,1,4.452-.3,7.658,7.658,0,0,1,2.016-1.632,1.454,1.454,0,0,1,1.464-2.76a1.388,1.388,0,0,1,.3-.9.888.888,0,0,1,.708-.372,1.247,1.247,0,0,1,.456.084,2.725,2.725,0,0,1,.5.276A9.15,9.15,0,0,0,5.3-2.64a5.246,5.246,0,0,0,1.944.36,3.4,3.4,0,0,0,2.424-.792,2.951,2.951,0,0,0,.84-2.256A2.984,2.984,0,0,0,9.66-7.572,3.215,3.215,0,0,0,7.32-8.4a4.9,4.9,0,0,0-1.668.264,5.23,5.23,0,0,0-1.5.888,1.639,1.639,0,0,1-.936.312A1.211,1.211,0,0,1,2.4-7.224a.961.961,0,0,1-.336-.768V-15.48a1.427,1.427,0,0,1,.384-1.056,1.46,1.46,0,0,1,1.08-.384H11.52q1.44,0,1.44,1.2t-1.44,1.2H5.088v4.56A5.07,5.07,0,0,1,8.088-10.824Zm16.1,2.136a4.022,4.022,0,0,1,2.316,1.452,4.284,4.284,0,0,1,.8,2.652A4.239,4.239,0,0,1,25.7-1.1,6.726,6.726,0,0,1,21.36.192a9.424,9.424,0,0,1-3-.48,7.221,7.221,0,0,1-2.448-1.344A1.454,1.454,0,0,1,15.36-2.76a1.388,1.388,0,0,1,.3-.9.888.888,0,0,1,.708-.372,1.067,1.067,0,0,1,.432.084q.192.084.528.276a10.357,10.357,0,0,0,1.92,1.032,5.378,5.378,0,0,0,1.992.36,3.638,3.638,0,0,0,2.352-.636,2.364,2.364,0,0,0,.768-1.932,2.216,2.216,0,0,0-.8-1.884,4.1,4.1,0,0,0-2.484-.612H19.7a1.032,1.032,0,0,1-.852-.372,1.319,1.319,0,0,1-.3-.852,1.306,1.306,0,0,1,.3-.864,1.047,1.047,0,0,1,.852-.36h.96q3.288,0,3.288-2.472a2.262,2.262,0,0,0-.7-1.776,2.773,2.773,0,0,0-1.92-.624,6.637,6.637,0,0,0-3.744,1.392q-.336.192-.528.276a1.067,1.067,0,0,1-.432.084.888.888,0,0,1-.708-.372,1.388,1.388,0,0,1-.3-.9,1.305,1.305,0,0,1,.132-.612,1.953,1.953,0,0,1,.42-.516,7.706,7.706,0,0,1,2.412-1.332,8.614,8.614,0,0,1,2.868-.492,6.029,6.029,0,0,1,3.972,1.224A4.026,4.026,0,0,1,26.9-12.648a4.375,4.375,0,0,1-.732,2.436A4.044,4.044,0,0,1,24.192-8.688ZM31.776.144A1.7,1.7,0,0,1,30.5-.372,1.765,1.765,0,0,1,30-1.656a1.765,1.765,0,0,1,.5-1.284,1.7,1.7,0,0,1,1.272-.516,1.7,1.7,0,0,1,1.272.516,1.765,1.765,0,0,1,.5,1.284,1.765,1.765,0,0,1-.5,1.284A1.7,1.7,0,0,1,31.776.144ZM44.544-8.688A4.022,4.022,0,0,1,46.86-7.236a4.284,4.284,0,0,1,.8,2.652A4.239,4.239,0,0,1,46.056-1.1a6.726,6.726,0,0,1-4.344,1.3,9.424,9.424,0,0,1-3-.48,7.221,7.221,0,0,1-2.448-1.344,1.454,1.454,0,0,1-.552-1.128,1.388,1.388,0,0,1,.3-.9.888.888,0,0,1,.708-.372,1.067,1.067,0,0,1,.432.084q.192.084.528.276A10.357,10.357,0,0,0,39.6-2.64a5.378,5.378,0,0,0,1.992.36,3.638,3.638,0,0,0,2.352-.636,2.364,2.364,0,0,0,.768-1.932,2.216,2.216,0,0,0-.8-1.884,4.1,4.1,0,0,0-2.484-.612H40.056a1.032,1.032,0,0,1-.852-.372,1.319,1.319,0,0,1-.3-.852,1.306,1.306,0,0,1,.3-.864,1.047,1.047,0,0,1,.852-.36h.96q3.288,0,3.288-2.472a2.262,2.262,0,0,0-.7-1.776,2.773,2.773,0,0,0-1.92-.624,6.637,6.637,0,0,0-3.744,1.392q-.336.192-.528.276a1.067,1.067,0,0,1-.432.084.888.888,0,0,1-.708-.372,1.388,1.388,0,0,1-.3-.9,1.305,1.305,0,0,1,.132-.612,1.953,1.953,0,0,1,.42-.516,7.706,7.706,0,0,1,2.412-1.332,8.614,8.614,0,0,1,2.868-.492,6.029,6.029,0,0,1,3.972,1.224,4.026,4.026,0,0,1,1.476,3.264,4.375,4.375,0,0,1-.732,2.436A4.044,4.044,0,0,1,44.544-8.688Zm14.4,0A4.022,4.022,0,0,1,61.26-7.236a4.284,4.284,0,0,1,.8,2.652A4.239,4.239,0,0,1,60.456-1.1a6.726,6.726,0,0,1-4.344,1.3,9.424,9.424,0,0,1-3-.48,7.221,7.221,0,0,1-2.448-1.344,1.454,1.454,0,0,1-.552-1.128,1.388,1.388,0,0,1,.3-.9.888.888,0,0,1,.708-.372,1.067,1.067,0,0,1,.432.084q.192.084.528.276A10.357,10.357,0,0,0,54-2.64a5.378,5.378,0,0,0,1.992.36,3.638,3.638,0,0,0,2.352-.636,2.364,2.364,0,0,0,.768-1.932,2.216,2.216,0,0,0-.8-1.884,4.1,4.1,0,0,0-2.484-.612H54.456a1.032,1.032,0,0,1-.852-.372,1.319,1.319,0,0,1-.3-.852,1.306,1.306,0,0,1,.3-.864,1.047,1.047,0,0,1,.852-.36h.96q3.288,0,3.288-2.472a2.262,2.262,0,0,0-.7-1.776,2.773,2.773,0,0,0-1.92-.624,6.637,6.637,0,0,0-3.744,1.392q-.336.192-.528.276a1.067,1.067,0,0,1-.432.084.888.888,0,0,1-.708-.372,1.388,1.388,0,0,1-.3-.9,1.305,1.305,0,0,1,.132-.612,1.953,1.953,0,0,1,.42-.516,7.706,7.706,0,0,1,2.412-1.332,8.614,8.614,0,0,1,2.868-.492,6.029,6.029,0,0,1,3.972,1.224,4.026,4.026,0,0,1,1.476,3.264,4.375,4.375,0,0,1-.732,2.436A4.044,4.044,0,0,1,58.944-8.688Z" transform="translate(505.5 114.3)"/>
        <path id="Path_69" data-name="Path 69" d="M8.232-10.944a5.609,5.609,0,0,1,2.784.684,4.781,4.781,0,0,1,1.9,1.908,5.79,5.79,0,0,1,.672,2.832,5.592,5.592,0,0,1-.792,2.976,5.371,5.371,0,0,1-2.22,2.016,7.235,7.235,0,0,1-3.3.72,9.417,9.417,0,0,1-2.9-.456A7.719,7.719,0,0,1,1.92-1.536a1.56,1.56,0,0,1-.5-.564,1.682,1.682,0,0,1-.144-.732A1.679,1.679,0,0,1,1.62-3.9a1.048,1.048,0,0,1,.852-.444A1.589,1.589,0,0,1,3-4.26a4.167,4.167,0,0,1,.624.3,13.12,13.12,0,0,0,1.752.9A4.521,4.521,0,0,0,7.1-2.736a3.245,3.245,0,0,0,2.22-.672A2.526,2.526,0,0,0,10.08-5.4,2.546,2.546,0,0,0,9.3-7.368a2.975,2.975,0,0,0-2.1-.72,5.108,5.108,0,0,0-1.488.2A6.545,6.545,0,0,0,4.248-7.2a2.016,2.016,0,0,1-1.008.288,1.42,1.42,0,0,1-.972-.348,1.169,1.169,0,0,1-.4-.924v-6.984a1.753,1.753,0,0,1,.456-1.3,1.753,1.753,0,0,1,1.3-.456h7.728q1.776,0,1.776,1.416,0,1.44-1.776,1.44H5.52V-10.3A5.442,5.442,0,0,1,8.232-10.944Zm14.592-.048a5.067,5.067,0,0,1,2.652.7A4.86,4.86,0,0,1,27.3-8.352a5.965,5.965,0,0,1,.66,2.832,5.888,5.888,0,0,1-.744,2.964,5.271,5.271,0,0,1-2.064,2.04,6.032,6.032,0,0,1-2.976.732,6.223,6.223,0,0,1-5.088-2.184,9.572,9.572,0,0,1-1.8-6.24,12.324,12.324,0,0,1,.84-4.74,6.81,6.81,0,0,1,2.412-3.108,6.3,6.3,0,0,1,3.66-1.08,8.826,8.826,0,0,1,2.76.456,7.177,7.177,0,0,1,2.376,1.272,1.772,1.772,0,0,1,.492.564,1.572,1.572,0,0,1,.156.732,1.679,1.679,0,0,1-.348,1.068,1.048,1.048,0,0,1-.852.444,1.563,1.563,0,0,1-.54-.084,4.567,4.567,0,0,1-.612-.3,14.549,14.549,0,0,0-1.716-.9,3.894,3.894,0,0,0-1.548-.324A2.687,2.687,0,0,0,20-12.84a7.832,7.832,0,0,0-1,3.84,3.967,3.967,0,0,1,1.56-1.452A4.7,4.7,0,0,1,22.824-10.992Zm-.864,8.3a2.344,2.344,0,0,0,1.812-.744A2.794,2.794,0,0,0,24.456-5.4a2.759,2.759,0,0,0-.684-1.944,2.344,2.344,0,0,0-1.812-.744,2.382,2.382,0,0,0-1.824.744,2.731,2.731,0,0,0-.7,1.944,2.774,2.774,0,0,0,.7,1.956A2.363,2.363,0,0,0,21.96-2.688ZM31.92.144a1.962,1.962,0,0,1-1.464-.588A2.024,2.024,0,0,1,29.88-1.92,2.024,2.024,0,0,1,30.456-3.4a1.962,1.962,0,0,1,1.464-.588,1.962,1.962,0,0,1,1.464.588A2.024,2.024,0,0,1,33.96-1.92a2.024,2.024,0,0,1-.576,1.476A1.962,1.962,0,0,1,31.92.144ZM43.272-10.944a5.609,5.609,0,0,1,2.784.684,4.781,4.781,0,0,1,1.9,1.908,5.79,5.79,0,0,1,.672,2.832,5.592,5.592,0,0,1-.792,2.976,5.371,5.371,0,0,1-2.22,2.016,7.235,7.235,0,0,1-3.3.72,9.417,9.417,0,0,1-2.9-.456A7.719,7.719,0,0,1,36.96-1.536a1.56,1.56,0,0,1-.5-.564,1.682,1.682,0,0,1-.144-.732A1.679,1.679,0,0,1,36.66-3.9a1.048,1.048,0,0,1,.852-.444,1.589,1.589,0,0,1,.528.084,4.167,4.167,0,0,1,.624.3,13.12,13.12,0,0,0,1.752.9,4.521,4.521,0,0,0,1.728.324,3.245,3.245,0,0,0,2.22-.672A2.526,2.526,0,0,0,45.12-5.4a2.546,2.546,0,0,0-.78-1.968,2.975,2.975,0,0,0-2.1-.72,5.108,5.108,0,0,0-1.488.2,6.545,6.545,0,0,0-1.464.684,2.016,2.016,0,0,1-1.008.288,1.42,1.42,0,0,1-.972-.348,1.169,1.169,0,0,1-.4-.924v-6.984a1.753,1.753,0,0,1,.456-1.3,1.753,1.753,0,0,1,1.3-.456h7.728q1.776,0,1.776,1.416,0,1.44-1.776,1.44H40.56V-10.3A5.442,5.442,0,0,1,43.272-10.944ZM61.248-3q1.776,0,1.776,1.488Q63.024,0,61.248,0H52.32a1.606,1.606,0,0,1-1.188-.444,1.513,1.513,0,0,1-.444-1.116,2.236,2.236,0,0,1,.7-1.584l5.28-5.592a5.3,5.3,0,0,0,1.776-3.456,1.954,1.954,0,0,0-.552-1.5,2.272,2.272,0,0,0-1.608-.516,4.422,4.422,0,0,0-1.68.312,13.515,13.515,0,0,0-1.776.912,6.83,6.83,0,0,1-.624.336,1.231,1.231,0,0,1-.5.1,1.063,1.063,0,0,1-.864-.468,1.74,1.74,0,0,1-.36-1.092,1.63,1.63,0,0,1,.156-.756,1.494,1.494,0,0,1,.516-.54,8.955,8.955,0,0,1,2.484-1.26,8.869,8.869,0,0,1,2.82-.468,7.24,7.24,0,0,1,2.988.576,4.482,4.482,0,0,1,1.98,1.644,4.4,4.4,0,0,1,.7,2.46A6.076,6.076,0,0,1,61.5-9.744,12,12,0,0,1,59.448-6.96L55.68-3Z" transform="translate(383.5 302.3)"/>
      </g>
    </g>
  </g>
</svg>
